<svg xmlns="http://www.w3.org/2000/svg" viewBox="0 0 1200 700" role="img" aria-labelledby="title desc">
  <title id="title">Backend APIs with Node and MongoDB</title>
  <desc id="desc">Backend API course card image.</desc>
  <rect width="1200" height="700" fill="#f0fdf4"/>
  <rect x="95" y="95" width="1010" height="510" rx="24" fill="#052e16"/>
  <rect x="155" y="155" width="360" height="390" rx="18" fill="#dcfce7"/>
  <rect x="585" y="155" width="460" height="100" rx="18" fill="#ffffff"/>
  <rect x="585" y="300" width="460" height="100" rx="18" fill="#ffffff"/>
  <rect x="585" y="445" width="460" height="100" rx="18" fill="#ffffff"/>
  <path d="M245 455c80-35 120-105 120-210 80 64 112 136 98 216-18 93-106 128-218 94 72-23 114-66 126-128-34 24-75 35-126 28z" fill="#16a34a"/>
  <text x="640" y="217" fill="#111827" font-family="Arial, sans-serif" font-size="34" font-weight="700">API Routes</text>
  <text x="640" y="362" fill="#111827" font-family="Arial, sans-serif" font-size="34" font-weight="700">MongoDB</text>
  <text x="640" y="507" fill="#111827" font-family="Arial, sans-serif" font-size="34" font-weight="700">Node.js</text>
</svg>
